<svg version="1.1" id="Layer_1" xmlns="http://www.w3.org/2000/svg" xmlns:xlink="http://www.w3.org/1999/xlink" x="0px" y="0px"
	 width="100%" viewBox="0 0 512 512" enable-background="new 0 0 512 512" xml:space="preserve">
<path id="stainsvg" fill="currentColor" opacity="1.000000" stroke="none" 
	d="
M308.000000,513.000000 
	C205.358261,513.000000 103.216515,513.000000 1.037387,513.000000 
	C1.037387,342.399902 1.037387,171.799789 1.037387,1.099841 
	C171.558426,1.099841 342.116913,1.099841 512.837708,1.099841 
	C512.837708,171.666534 512.837708,342.333252 512.837708,513.000000 
	C444.799774,513.000000 376.649872,513.000000 308.000000,513.000000 
M137.243027,394.163544 
	C146.429932,400.030365 156.691864,403.189545 167.364929,403.455505 
	C189.172699,403.998871 206.604782,395.340576 218.645996,376.650238 
	C223.507141,369.104736 228.275101,361.433746 233.853897,354.432159 
	C241.335022,345.043060 251.418350,339.790375 265.148407,344.679535 
	C275.335205,348.306915 284.222992,354.071075 292.717468,360.474060 
	C308.718903,372.535828 325.949280,380.237701 346.620026,377.673431 
	C359.162994,376.117432 370.387634,372.223755 379.321259,362.668762 
	C387.838318,353.559235 389.347839,340.309784 382.561584,329.715637 
	C378.019562,322.625092 371.155548,318.066559 364.371307,313.688904 
	C351.454926,305.354340 343.827393,293.623077 340.337402,278.973633 
	C338.630615,271.809204 339.741272,265.060669 343.067413,258.278503 
	C347.996155,248.228592 355.851868,240.525116 362.710175,232.049576 
	C375.673615,216.029221 369.512512,190.144073 353.962219,181.260818 
	C346.530518,177.015396 338.365326,175.651459 330.038208,175.461945 
	C322.549408,175.291473 315.125397,175.110336 307.772491,173.447586 
	C304.043274,172.604294 302.597473,170.656464 302.553680,166.836792 
	C302.487457,161.057907 303.499420,155.742737 306.137299,150.499344 
	C309.640533,143.535919 313.961609,136.880569 315.791595,129.176147 
	C317.740417,120.971443 317.346008,113.199570 310.130188,107.381454 
	C302.768982,101.446114 294.329529,97.522972 285.175323,95.402954 
	C266.618164,91.105309 252.760361,97.759300 244.294113,114.541321 
	C239.927078,123.197739 238.389160,132.371811 238.317963,141.983063 
	C238.208969,156.700012 233.528259,160.329422 218.922516,158.590698 
	C209.120529,157.423813 199.783752,154.544601 190.311569,152.126205 
	C186.822372,151.235367 183.448486,151.100800 179.999390,152.113312 
	C162.929276,157.124329 157.586136,180.698242 170.581833,194.271988 
	C174.609848,198.479141 178.716461,202.575195 181.989075,207.421356 
	C188.608612,217.223694 185.218933,227.283249 174.077057,231.373398 
	C164.927307,234.732239 156.502930,232.701874 148.250519,228.478668 
	C137.986053,223.225815 129.235001,215.666962 119.470985,209.656662 
	C111.121124,204.516846 102.250893,200.574783 92.221565,201.503647 
	C75.049911,203.094009 62.474068,215.540024 68.857185,235.285126 
	C72.550293,246.709137 81.676155,253.071426 91.495499,258.626984 
	C100.600571,263.778473 109.834686,268.704163 118.893127,273.935120 
	C128.539764,279.505768 130.229553,285.631226 124.061081,295.008545 
	C114.305275,309.839325 108.094681,325.522003 109.334877,343.667542 
	C110.766586,364.614990 119.042671,381.692413 137.243027,394.163544 
M65.371162,57.881168 
	C57.784260,60.640308 52.478649,65.752975 49.299515,73.183685 
	C43.001553,87.904190 45.256897,102.055641 52.259861,115.774902 
	C58.759636,128.508392 68.246124,138.247574 82.068214,142.888000 
	C89.434616,145.361099 96.978432,145.807281 104.460983,142.675430 
	C117.925316,137.039841 122.908951,125.726151 123.454300,112.453682 
	C124.262833,92.776093 115.364456,77.057663 100.334030,65.058380 
	C90.431786,57.153088 78.832916,54.051670 65.371162,57.881168 
M415.036682,442.996429 
	C439.094055,441.664703 445.121216,419.563416 435.475342,404.055237 
	C430.125793,395.454407 422.589600,389.168457 413.100861,385.762390 
	C402.937958,382.114380 392.348053,381.401550 382.666626,386.892822 
	C370.914978,393.558319 368.311432,409.358337 376.139008,421.845673 
	C384.957367,435.913605 397.932281,442.556580 415.036682,442.996429 
M262.033112,461.524445 
	C269.624023,457.951691 276.773956,453.762054 281.395294,446.434082 
	C290.975281,431.243317 286.921448,416.523956 272.255493,409.558044 
	C253.528976,400.663513 229.591827,411.836334 220.818298,426.607086 
	C212.457291,440.683350 217.492996,457.993530 233.570129,462.874268 
	C243.052933,465.753143 252.187363,465.229980 262.033112,461.524445 
M376.012299,150.474930 
	C392.294983,142.093369 401.468689,128.947266 401.504944,110.457764 
	C401.532471,96.415581 389.281189,84.332443 373.378845,87.210358 
	C357.906647,90.010429 348.626862,100.038788 342.597229,113.502861 
	C339.388336,120.668243 338.450165,128.410706 340.732117,136.320023 
	C344.377716,148.955765 358.015289,157.867264 376.012299,150.474930 
M399.346497,259.203430 
	C400.755646,264.273987 403.113312,268.681854 407.619049,271.749115 
	C425.994934,284.258423 455.619476,275.568756 465.484344,255.074554 
	C473.054413,239.347794 463.766266,224.777847 450.347687,221.208755 
	C433.719666,216.786011 419.658081,221.244095 407.782135,233.264191 
	C400.918549,240.211090 397.134033,248.342514 399.346497,259.203430 
M162.385635,74.854561 
	C161.752701,89.291618 166.471146,101.722923 176.983917,111.612816 
	C191.634079,125.394966 212.048615,120.087639 218.244736,101.113602 
	C222.986618,86.592819 217.061478,66.230118 205.282715,56.567455 
	C194.962097,48.100967 183.405014,46.991745 173.525070,53.623646 
	C166.321762,58.458855 163.781128,65.907288 162.385635,74.854561 
z"/>
</svg>